# xmcd
# Copyright (C) 1995-1998 Ti Kan
#
# Track frame offsets:
#       150
#       14385
#       38031
#       53257
#       68397
#       87492
#       113447
#       129111
#       151599
#       161237
#       192479
#       208831
#       226934
#       246787
#       257838
#       273025
#       294970
#       309613
#       323545
#       336125
#
# Disc length: 4737 seconds
#
# Revision: 0
# Processed by: cddbd v1.5.2PL0 Copyright (c) Steve Scherf et al.
# Submitted via: CD-Transfer v1.0
#
DISCID=fd127f14
DTITLE=Sämi Krababble and The Fuckin' Rainbow Warriors - 
DYEAR=1900
DGENRE=
TTITLE0=Half Price Baby
TTITLE1=Vodoo Chile (Slight Return)
TTITLE2=Too Short Leash
TTITLE3=Surf Rider
TTITLE4=Schrei Nach Liebe
TTITLE5=Pale Blue Eyes
TTITLE6=Nothing To Smile About
TTITLE7=No Facho (Dub Spirit)
TTITLE8=My United States Of Whatever
TTITLE9=Maggie's Farm
TTITLE10=Lost Art Of Keeping A Secret
TTITLE11=Lied Im Ohr
TTITLE12=La Colmena
TTITLE13=I Fought The Law (Live)
TTITLE14=El Imperio Caera
TTITLE15=Crimen Sollicitationis
TTITLE16=Chemicals
TTITLE17=California Über Alles
TTITLE18=Big Six
TTITLE19=B.y.o.b
EXTD=
EXTT0=
EXTT1=
EXTT2=
EXTT3=
EXTT4=
EXTT5=
EXTT6=
EXTT7=
EXTT8=
EXTT9=
EXTT10=
EXTT11=
EXTT12=
EXTT13=
EXTT14=
EXTT15=
EXTT16=
EXTT17=
EXTT18=
EXTT19=
PLAYORDER=
